<svg xmlns="http://www.w3.org/2000/svg" xmlns:xlink="http://www.w3.org/1999/xlink" width="630" height="630">

    <rect width="100%" height="100%" fill="teal" />
    <rect width="50%" height="100%" fill="#f0ead6" />

    <!-- <g transform="translate(315, 315) scale(1, 1)">
        <path d="M 0,70 A 65,70 0 0,0 65,0 5,5 0 0,1 75,0 75,70 0 0,1 0,70Z" fille='lime'>
            <animateTransform attributeName="transform" type="rotate" from="360" to="0" dur="19s"
                repeatCount="indefinite" id="yeet" />
            <animate attributeName="fill" values="#f0ead6;black;teal;#f0ead6" keyTimes="0; 0.21; 0.36; 1" dur="19s"
                repeatCount="indefinite">
            </animate>

        </path>
    </g> -->

    <g transform="translate(315, 315) scale(2, 2)">
        <path d="M 0,70 A 65,70 0 0,0 65,0 5,5 0 0,1 75,0 75,70 0 0,1 0,70Z" fill="black">
            <animateTransform attributeName="transform" type="rotate" from="360" to="0" dur="11s"
                repeatCount="indefinite" id="yeet" />
            <animate attributeName="fill" values="#f0ead6;teal;#f0ead6" dur="11s" repeatCount="indefinite">
            </animate>

        </path>
    </g>
    <g transform="translate(315, 315) scale(3, 3)">
        <path d="M 0,70 A 65,70 0 0,0 65,0 5,5 0 0,1 75,0 75,70 0 0,1 0,70Z" fill="teal">
            <animateTransform attributeName="transform" type="rotate" from="360" to="0" dur="16s"
                repeatCount="indefinite" id="yeet" />
            <animate attributeName="fill" values="#f0ead6;teal;#f0ead6" dur="16s" repeatCount="indefinite">
            </animate>

        </path>
    </g>
    <g transform="translate(315, 315) scale(4, 4)">
        <path d="M 0,70 A 65,70 0 0,0 65,0 5,5 0 0,1 75,0 75,70 0 0,1 0,70Z" fill="teal">
            <animateTransform attributeName="transform" type="rotate" from="360" to="0" dur="20s"
                repeatCount="indefinite" id="yeet" />
            <animate attributeName="fill" values="#f0ead6;teal;#f0ead6" dur="20s" repeatCount="indefinite">
            </animate>

        </path>
    </g>
</svg>